<svg xmlns="http://www.w3.org/2000/svg" fill="currentColor" viewBox="0 0 22 26"><path fill-rule="evenodd" d="M3.67 22.45A3.6 3.6 0 0 1 0 18.91c0-1.3.73-2.46 1.84-3.07v-4.61a8.9 8.9 0 0 1 6.72-8.55v-.32A2.4 2.4 0 0 1 11 0a2.4 2.4 0 0 1 2.44 2.36v.32a8.9 8.9 0 0 1 6.73 8.55v4.62A3.5 3.5 0 0 1 22 18.9a3.6 3.6 0 0 1-3.67 3.54h-3.66A3.6 3.6 0 0 1 11 26a3.6 3.6 0 0 1-3.67-3.54zm6.1 0c0 .66.55 1.19 1.23 1.19a1.2 1.2 0 0 0 1.22-1.19zm7.95-11.22v5.71c0 .33.27.66.6.74l.32.08c.53.14.92.6.92 1.15a1.2 1.2 0 0 1-1.23 1.18H3.67a1.2 1.2 0 0 1-1.23-1.18c0-.54.39-1.01.92-1.15l.33-.08a.8.8 0 0 0 .59-.74v-5.71c0-3.6 3-6.5 6.72-6.5s6.72 2.9 6.72 6.5" clip-rule="evenodd" opacity=".4"/></svg>
