<svg xmlns="http://www.w3.org/2000/svg" fill="currentColor" viewBox="0 0 27 20"><path fill-rule="evenodd" d="m22.2 2.87-3.8 2.81V2.5c0-1.38-1.09-2.5-2.44-2.5H2.46A2.5 2.5 0 0 0 0 2.5v15C0 18.88 1.1 20 2.45 20h13.5a2.5 2.5 0 0 0 2.46-2.5v-3.18l3.8 2.81c.27.2.77.37 1.11.37h2.45c.69 0 1.23-.56 1.23-1.25V3.75c0-.69-.55-1.25-1.23-1.25h-2.45c-.35 0-.84.16-1.11.37M2.46 17.5v-15h13.5v15zm2.46-3.75c0-.69.55-1.25 1.23-1.25h6.13c.68 0 1.23.55 1.23 1.25 0 .69-.55 1.25-1.23 1.25H6.14c-.68 0-1.23-.55-1.23-1.25M23.5 15l-5.09-3.76V8.76L23.51 5h1.04v10z" clip-rule="evenodd" opacity=".4"/></svg>
