<svg xmlns="http://www.w3.org/2000/svg" fill="currentColor" viewBox="0 0 19 18"><path fill-rule="evenodd" d="M15.59 16.18c.21 1.25-.88 2.04-2.01 1.45 0 0-4.25-2.2-4.21-2.22l-4.25 2.22c-1.14.6-2.23-.2-2.01-1.45 0 0 .79-4.71.82-4.68L.5 8.16C-.42 7.27 0 6 1.26 5.81c0 0 4.74-.7 4.72-.66L8.11.85c.56-1.14 1.91-1.14 2.48 0 0 0 2.14 4.28 2.1 4.27l4.75.7c1.26.17 1.68 1.45.76 2.34 0 0-3.42 3.35-3.42 3.3zm-10.5-.62 3.42-1.79c.5-.26 1.18-.26 1.68 0l3.42 1.8-.66-3.8c-.1-.55.12-1.2.52-1.6l2.75-2.66-3.8-.56a1.9 1.9 0 0 1-1.37-.99l-1.7-3.43-1.7 3.43c-.26.5-.81.91-1.37.99l-3.81.55 2.76 2.68c.4.4.61 1.04.52 1.6z" clip-rule="evenodd"/></svg>
