<svg xmlns="http://www.w3.org/2000/svg" fill="currentColor" viewBox="0 0 21 21"><path fill-rule="evenodd" d="M0 2.5a2.5 2.5 0 1 0 5 0 2.5 2.5 0 0 0-5 0M2.5 13a2.5 2.5 0 1 1 0-5 2.5 2.5 0 0 1 0 5m0 8a2.5 2.5 0 1 1 0-5 2.5 2.5 0 0 1 0 5m8 0a2.5 2.5 0 1 1 0-5 2.5 2.5 0 0 1 0 5m5.5-2.5a2.5 2.5 0 1 0 5 0 2.5 2.5 0 0 0-5 0M10.5 13a2.5 2.5 0 1 1 0-5 2.5 2.5 0 0 1 0 5M8 2.5a2.5 2.5 0 1 0 5 0 2.5 2.5 0 0 0-5 0M18.5 13a2.5 2.5 0 1 1 0-5 2.5 2.5 0 0 1 0 5M16 2.5a2.5 2.5 0 1 0 5 0 2.5 2.5 0 0 0-5 0" clip-rule="evenodd" opacity=".4"/></svg>
