<svg xmlns="http://www.w3.org/2000/svg" fill="currentColor" viewBox="0 0 20 18"><path fill-rule="evenodd" d="M6.36 0c-1.5 0-2.72 1.2-2.72 2.7v9.9H.9c-.5 0-.91.4-.91.9v1.8C0 16.8 1.22 18 2.73 18h10.9c1.51 0 2.73-1.2 2.73-2.7V5.4h2.73c.5 0 .91-.4.91-.9V2.7C20 1.21 18.78 0 17.27 0zM5.3 16.2q.15-.42.15-.9V2.7c0-.5.41-.9.91-.9s.91.4.91.9v1.8c0 .5.4.9.91.9h6.37v9.9c0 .5-.41.9-.91.9zm-3.48-1.8v.9c0 .5.4.9.9.9.51 0 .92-.4.92-.9v-.9zM9.09 3.6v-.9q0-.48-.15-.9h8.33c.5 0 .91.4.91.9v.9z" clip-rule="evenodd"/></svg>
