<svg xmlns="http://www.w3.org/2000/svg" fill="currentColor" viewBox="0 0 18 20"><path fill-rule="evenodd" d="M14.85 17.27A3.17 3.17 0 0 0 18 14.1V.93q0-.11-.02-.23a.9.9 0 0 0-1.09-.68L5.23 2.8c-.4.1-.68.45-.73.85v10.3q-.62-.3-1.35-.3A3.17 3.17 0 0 0 0 16.82 3.17 3.17 0 0 0 3.15 20a3.17 3.17 0 0 0 3.15-3.18V8.04l9.9-2.35v5.53q-.61-.3-1.35-.31a3.17 3.17 0 0 0-3.15 3.18 3.17 3.17 0 0 0 3.15 3.18M6.3 6.17V4.4l9.9-2.34v1.77zm9.9 7.92c0-.75-.6-1.36-1.35-1.36s-1.35.6-1.35 1.36c0 .75.6 1.36 1.35 1.36s1.35-.6 1.35-1.36M3.15 15.45c.75 0 1.35.62 1.35 1.37s-.6 1.36-1.35 1.36-1.35-.6-1.35-1.36c0-.75.6-1.37 1.35-1.37" clip-rule="evenodd"/></svg>
