<svg xmlns="http://www.w3.org/2000/svg" fill="currentColor" viewBox="0 0 19 20"><path fill-rule="evenodd" d="m13.47 3.73-.74-.43s-.78-2.11-.85-2.26A1.8 1.8 0 0 0 10.28 0H8.42c-.67 0-1.35.45-1.61 1.07-.06.12-.82 2.23-.82 2.23l-.74.43s-2.23-.39-2.39-.4a1.8 1.8 0 0 0-1.7.86L.23 5.81c-.34.58-.3 1.39.11 1.93l1.52 1.83v.86S.42 12.16.33 12.29a1.8 1.8 0 0 0-.1 1.9l.93 1.62c.33.58 1.06.94 1.73.86.13-.01 2.34-.4 2.34-.4l.75.42s.77 2.12.84 2.27c.25.6.92 1.04 1.6 1.04h1.86c.68 0 1.35-.45 1.62-1.07l.83-2.23.73-.43 2.38.4a1.8 1.8 0 0 0 1.7-.86l.94-1.62c.34-.58.29-1.39-.12-1.93l-1.52-1.82.01-.44v-.43l1.53-1.86c.39-.5.44-1.32.1-1.9l-.93-1.62a1.8 1.8 0 0 0-1.73-.86c-.13.01-2.35.4-2.35.4m-2.53.58.14.44.43.19q.62.26 1.14.66l.38.28.46-.1c.66-.16 2.22-.42 2.37-.44a5 5 0 0 1 .78 1.35c-.09.12-1.1 1.34-1.56 1.84l-.32.34.05.47a6 6 0 0 1 0 1.32l-.05.47.32.34c.47.5 1.47 1.72 1.56 1.84a6 6 0 0 1-.78 1.35c-.15-.02-1.7-.28-2.37-.44l-.46-.1-.38.28a6 6 0 0 1-1.14.66l-.43.19-.14.45c-.2.65-.75 2.13-.8 2.27a5 5 0 0 1-1.57 0c-.06-.14-.61-1.62-.8-2.27l-.14-.45-.43-.19q-.62-.26-1.15-.66l-.38-.28-.45.1a43 43 0 0 1-2.38.44 5 5 0 0 1-.78-1.35 43 43 0 0 1 1.57-1.84l.32-.34-.06-.47a6 6 0 0 1 0-1.32l.06-.47-.32-.34c-.47-.5-1.48-1.72-1.57-1.84a5 5 0 0 1 .78-1.35c.15.02 1.71.28 2.38.44l.45.1.38-.28a6 6 0 0 1 1.15-.66l.43-.19.13-.45a43 43 0 0 1 .8-2.27 5 5 0 0 1 1.57 0c.06.14.62 1.62.81 2.28M9.35 13a3 3 0 1 1 0-6 3 3 0 0 1 0 6m1-3a1 1 0 1 1-2 0 1 1 0 0 1 2 0" clip-rule="evenodd"/></svg>
