<svg xmlns="http://www.w3.org/2000/svg" fill="currentColor" viewBox="0 0 16 21"><path fill-rule="evenodd" d="M13.62 7.2A6.4 6.4 0 0 1 16 12.32c0 4.6-3.59 8.2-7.99 8.2A8.1 8.1 0 0 1 0 12.33c0-2.53.55-4.1 2.16-6.69.5-.82 1.74-.53 1.83.44q.15 1.32.74 2.18C4.47 5.19 5.8 1.74 9.09.1c.76-.38 1.6.31 1.4 1.16-.5 2.18.02 3.35 1.4 4.62l.44.32c.4.3 1 .75 1.29.99M2.62 9A7 7 0 0 0 2 12.33c0 3.45 2.7 6.16 6.01 6.16S14 15.78 14 12.32c0-1.54-.58-2.6-1.67-3.55-.18-.15-.58-.46-.97-.74-.36-.27-.7-.52-.8-.62C9.23 6.2 8.42 4.91 8.3 3.18c-.67.67-2.2 2.75-1.34 6.87.14.64-.34 1.24-.98 1.24-1.26 0-2.51-1-3.27-2.5z" clip-rule="evenodd"/></svg>
