<svg xmlns="http://www.w3.org/2000/svg" fill="currentColor" viewBox="0 0 17 19"><path fill-rule="evenodd" d="M12.73 16.73a7.8 7.8 0 0 1-8.46 0l-.9 1.62a1 1 0 0 1-1.37.37c-.48-.28-.64-.9-.37-1.4l1.08-1.9a8.3 8.3 0 0 1-1.48-9.1A3.6 3.6 0 0 1 0 3.6C0 1.61 1.57 0 3.5 0c1.3 0 2.42.72 3.03 1.8a8 8 0 0 1 3.76-.05 3.5 3.5 0 0 1 3-1.75c1.94 0 3.5 1.6 3.5 3.6 0 1.02-.41 1.94-1.08 2.6a8.4 8.4 0 0 1-1.42 9.23c.03.03 1.08 1.9 1.08 1.9.27.49.1 1.11-.37 1.4a1 1 0 0 1-1.37-.38zM7.5 5.65c0-.57.44-1.03 1-1.03.55 0 1 .46 1 1.03v4.1c0 .57-.44 1.03-1 1.03h-2c-.55 0-1-.45-1-1.02s.44-1.03 1-1.03h1zM2 3.59c0-.85.67-1.54 1.5-1.54.44 0 .84.2 1.12.52a8 8 0 0 0-2.3 1.97Q2 4.14 2 3.6m12.8 0c0-.85-.68-1.54-1.5-1.54q-.63.02-1.06.44a8 8 0 0 1 2.33 1.91q.21-.36.22-.8M8.5 15.92c-3.31 0-6-2.76-6-6.16s2.69-6.17 6-6.17 6 2.76 6 6.17c0 3.4-2.69 6.16-6 6.16" clip-rule="evenodd"/></svg>
