<svg xmlns="http://www.w3.org/2000/svg" fill="currentColor" viewBox="0 0 116 25"><path d="M7.94 4h21v17h-21z"/><path fill="red" fill-rule="evenodd" d="m11.61 24.82 7.52.14q.03 0 .04.02c4.18.07 8.26-.17 12.44-.47 3.33-.23 4.12-2.61 4.53-5.45a46 46 0 0 0 .32-10.86c-.25-3.3-.53-7.02-4.5-7.7-.84-.15-1.7-.28-2.55-.3-8.1-.27-16.27-.33-24.39.22A4.4 4.4 0 0 0 .67 4.33a51 51 0 0 0-.46 12.88c.27 2.98.58 6.45 4.14 7.17 1.93.4 3.88.4 5.84.43zm7.06-9.3q-1.96 1.13-3.96 2.24V7.16l4.27 2.42 5.1 2.88z" clip-rule="evenodd"/><path fill-rule="evenodd" d="m96.72 22.75.27-1.02.18.25.17.24c1.56 2.02 4.7 1.66 5.67-.67.3-.7.53-1.48.56-2.24q.15-3.7.08-7.4c-.02-.96-.22-1.95-.53-2.87-.47-1.48-1.8-2.15-3.36-1.85q-1.46.31-2.33 1.51l-.12.15-.23.27V.87h-3.43v22.37h2.94zm.44-3.09v-8.19c0-.68.33-1.2.88-1.57.73-.47 1.47-.23 1.74.59.14.45.26.94.26 1.4q-.04 3.75-.14 7.5c-.01.27-.12.54-.24.8-.27.6-.8.85-1.47.7q-1.02-.22-1.03-1.23M87.83 7.5h3.6v15.75h-2.81l-.3-1.73-.03-.2-.3.45-.12.19c-.93 1.32-2.26 1.78-3.82 1.54-1.33-.22-2.13-1.23-2.31-2.9q-.08-.74-.08-1.49V7.5h3.64v11.32q0 .78.15 1.54c.1.52.49.71 1 .67.83-.06 1.4-.67 1.4-1.48V8.2q-.03-.33-.02-.7m-21.14 0h-3.6l-.02.42q0 5.74.02 11.5 0 .7.11 1.42c.24 1.53 1.02 2.46 2.3 2.65 1.6.24 2.9-.25 3.84-1.6l.38-.58.17.97.17.97h2.8V7.52h-3.6V19.5c0 .82-.5 1.38-1.32 1.5-.6.07-.94-.12-1.08-.7q-.15-.76-.16-1.53V7.5m-5.46 8.4q-.02.64-.06 1.27l-.02.32-.04.43c-.12 1.55-.28 3.52-1.47 4.58-.83.74-1.88 1-2.97 1.04a9 9 0 0 1-1.46-.06c-2.29-.34-3.35-1.34-3.74-3.82-.43-2.86-.47-5.78.05-8.64.54-2.97 2.4-4.02 5.28-3.82 2.69.19 3.89 1.93 4.2 4.4q.27 2.13.23 4.3m-3.66-1.4v.86q-.01 1.4-.08 2.8l-.04 1.28c0 .34-.12.69-.26 1a1 1 0 0 1-.96.65c-.48 0-.85-.24-1-.67-.37-1.1-.33-2.3-.29-3.48l.03-.94.02-4.75q.01-.33.13-.66v-.04q.3-.92 1.1-.95c.53 0 .96.31 1.1.98q.2.86.23 1.75.04 1.08.02 2.16m-11.12-3.34q.34-1.66.7-3.28l.59-2.66q.35-1.53.68-3.06c.1-.47.3-.58.74-.57q1.03.03 2.1.02h.88l-.91 3.22-.08.28-3.06 10.74q-.1.42-.1.88-.02 1.95-.01 3.9v2.6h-3.51l-.01-.18q-.03-.17-.03-.35l-.01-1.06c-.02-.76-.04-1.51.03-2.26.22-2.3-.4-4.44-1.02-6.58l-.26-.93L41.8 7l-1.37-4.87-.07-.27-.05-.24h3.59q1.1 5.36 2.3 10.77zm62.38 5.34h6.05l.01-2.14.02-2.44a10 10 0 0 0-.3-1.96c-.34-1.36-1.12-2.4-2.6-2.66-.9-.15-1.85-.19-2.77-.1-1.7.16-2.8 1.15-3.3 2.75q-.19.58-.3 1.18c-.37 2.4-.3 4.82-.12 7.22.06.98.37 1.95.69 2.88.35 1 1.12 1.65 2.15 1.95 1.4.4 2.8.4 4.18-.13 1.74-.66 2.77-2.82 2.2-4.5l-2.1-.1-.91-.05v.1l-.05.7q-.04.4-.12.77-.24 1.15-1.3 1.12c-.69 0-1.12-.34-1.22-1.13q-.12-1.21-.16-2.48zm2.61-2.07V11c0-.26-.11-.54-.21-.8-.2-.49-.63-.62-1.14-.62q-.76.01-.95.7a11 11 0 0 0-.27 3.39l.02.76zM72.07 4.5h3.56v18.74h3.53V4.47h3.53V1.65H72.07z" clip-rule="evenodd"/></svg>
